<?xml version="1.0" encoding="utf-8"?>
<!-- Generator: Adobe Illustrator 24.3.0, SVG Export Plug-In . SVG Version: 6.00 Build 0)  -->
<svg version="1.1" id="Google_Pay_Co-Marketing_Lockup"
	 xmlns="http://www.w3.org/2000/svg" xmlns:xlink="http://www.w3.org/1999/xlink" x="0px" y="0px" viewBox="0 0 1712.81 576.94"
	 enable-background="new 0 0 1712.81 576.94" xml:space="preserve">
<g id="Google_Pay">
	<g id="Pay_29_">
		<path fill="#5F6368" d="M1186.52,283.22v84.53h-26.81V159.06h71.12c18.07,0,33.42,6.02,46.05,18.07
			c12.82,12.05,19.23,26.72,19.23,44.01c0,17.68-6.41,32.45-19.23,44.3c-12.44,11.85-27.79,17.78-46.05,17.78H1186.52z
			 M1186.52,184.7v72.87h44.89c10.68,0,19.53-3.59,26.52-10.79c7.19-7.18,10.79-15.74,10.79-25.65c0-9.71-3.6-18.17-10.79-25.36
			c-7-7.38-15.84-11.08-26.52-11.08H1186.52z"/>
		<path fill="#5F6368" d="M1366.29,220.26c19.82,0,35.46,5.29,46.93,15.88c11.46,10.59,17.2,25.12,17.2,43.57v88.02h-25.65v-19.82
			h-1.17c-11.08,16.32-25.85,24.48-44.3,24.48c-15.74,0-28.9-4.66-39.49-13.99c-10.59-9.32-15.88-20.99-15.88-34.98
			c0-14.76,5.58-26.52,16.76-35.27c11.17-8.74,26.08-13.11,44.74-13.11c15.93,0,29.04,2.91,39.35,8.74v-6.12
			c0-9.32-3.69-17.24-11.08-23.75c-7.39-6.51-16.03-9.76-25.94-9.76c-14.96,0-26.81,6.31-35.56,18.94l-23.61-14.87
			C1321.6,229.59,1340.83,220.26,1366.29,220.26z M1331.61,324.03c0,7,2.96,12.82,8.89,17.49c5.92,4.67,12.87,7,20.84,7
			c11.27,0,21.32-4.18,30.16-12.53c8.84-8.35,13.26-18.17,13.26-29.44c-8.36-6.6-20.02-9.91-34.98-9.91
			c-10.88,0-19.96,2.62-27.25,7.87C1335.25,309.74,1331.61,316.25,1331.61,324.03z"/>
		<path fill="#5F6368" d="M1576.4,224.93l-89.48,205.77h-27.69l33.23-71.99l-58.88-133.78h29.15l42.55,102.59h0.58l41.39-102.59
			H1576.4z"/>
	</g>
	<g id="Google_Logo_22_">
		<path id="G_42_" fill="#4285F4" d="M256.02,372.35c-64.98,0-119.61-52.94-119.61-117.97S191.03,136.4,256.02,136.4
			c35.94,0,61.53,14.1,80.8,32.51l-22.72,22.73c-13.8-12.95-32.49-23.02-58.08-23.02c-47.44,0-84.53,38.27-84.53,85.75
			c0,47.47,37.09,85.74,84.53,85.74c30.77,0,48.31-12.37,59.52-23.59c9.2-9.21,15.24-22.44,17.54-40.57h-77.9v-32.23h109.24
			c1.15,5.75,1.72,12.66,1.72,20.14c0,24.17-6.61,54.1-27.89,75.39C317.55,360.84,291.1,372.35,256.02,372.35z"/>
		<path id="o_45_" fill="#EA4335" d="M529.75,296.38c0,43.74-34.18,75.96-76.11,75.96s-76.11-32.23-76.11-75.96
			c0-44.02,34.18-75.96,76.11-75.96S529.75,252.36,529.75,296.38z M496.44,296.38c0-27.33-19.82-46.04-42.79-46.04
			c-22.97,0-42.79,18.7-42.79,46.04c0,27.05,19.82,46.04,42.79,46.04C476.62,342.42,496.44,323.43,496.44,296.38z"/>
		<path id="o_44_" fill="#FBBC04" d="M695.41,296.38c0,43.74-34.18,75.96-76.11,75.96c-41.93,0-76.11-32.23-76.11-75.96
			c0-44.02,34.18-75.96,76.11-75.96C661.23,220.42,695.41,252.36,695.41,296.38z M662.09,296.38c0-27.33-19.82-46.04-42.79-46.04
			s-42.79,18.7-42.79,46.04c0,27.05,19.82,46.04,42.79,46.04S662.09,323.43,662.09,296.38z"/>
		<path id="g_22_" fill="#4285F4" d="M853.87,225.03v136.38c0,56.11-33.07,79.13-72.17,79.13c-36.8,0-58.95-24.74-67.28-44.89
			l29.04-12.08c5.18,12.37,17.83,27.05,38.24,27.05c25.02,0,40.54-15.54,40.54-44.6v-10.93h-1.15
			c-7.48,9.21-21.85,17.26-39.97,17.26c-37.96,0-72.75-33.09-72.75-75.67c0-42.87,34.79-76.25,72.75-76.25
			c18.11,0,32.49,8.05,39.97,16.98h1.15v-12.37H853.87z M824.54,296.67c0-26.76-17.83-46.33-40.54-46.33
			c-23.01,0-42.27,19.57-42.27,46.33c0,26.47,19.26,45.75,42.27,45.75C806.72,342.42,824.54,323.14,824.54,296.67z"/>
		<path id="l_22_" fill="#34A853" d="M911.23,144.46v223.28h-33.36V144.46H911.23z"/>
		<path id="e_22_" fill="#EA4335" d="M1040.5,321.42l25.88,17.26c-8.34,12.37-28.47,33.67-63.26,33.67
			c-43.13,0-75.33-33.38-75.33-75.96c0-45.17,32.49-75.96,71.6-75.96c39.39,0,58.66,31.36,64.98,48.34l3.45,8.63l-101.5,42.01
			c7.77,15.25,19.84,23.02,36.8,23.02C1020.09,342.42,1031.88,334.08,1040.5,321.42z M960.85,294.08l67.86-28.2
			c-3.74-9.5-14.95-16.12-28.18-16.12C983.57,249.77,959.99,264.73,960.85,294.08z"/>
	</g>
</g>
<g>
</g>
<g>
</g>
<g>
</g>
<g>
</g>
<g>
</g>
<g>
</g>
<g>
</g>
<g>
</g>
<g>
</g>
<g>
</g>
<g>
</g>
<g>
</g>
<g>
</g>
<g>
</g>
<g>
</g>
</svg>
